<svg height="216" width="375" xmlns="http://www.w3.org/2000/svg">
    <rect y="2" x="2" height="212" width="371" style="stroke:#616161"/>
    <path d="M55 2 V214" style="stroke:#616161"/>
    <path style="stroke:#616161" d="M108 2 V214"/>
    <path d="M161 2 V214" style="stroke:#616161"/>
    <path d="M214 2 V214" style="stroke:#616161"/>
    <path d="M267 2 V214" style="stroke:#616161"/>
    <path style="stroke:#616161" d="M320 2 V214"/>
    <path style="stroke:#616161" d="M2 55 H373"/>
    <path d="M2 108 H373" style="stroke:#616161"/>
    <path d="M2 161 H373" style="stroke:#616161"/>
    <path d="M2 161 H55 L108 19.7 L161 108 L267 125.7 L320 161 H373" style="fill:none;stroke:#e5e5e5"/>
    <text y="18" x="96" style="font-size:13px;font-family:Arial,sans-serif;fill:#e5e5e5">
      <tspan y="18" x="96">L1</tspan>
   </text>
   <text y="106" x="57" style="font-size:13px;font-family:Arial,sans-serif;fill:#e5e5e5">
      <tspan x="57" y="106">R1</tspan>
   </text>
   <text y="67" x="141" style="font-size:13px;font-family:Arial,sans-serif;fill:#e5e5e5">
      <tspan x="141" y="67">R2</tspan>
   </text>
   <text y="119" x="145" style="font-size:13px;font-family:Arial,sans-serif;fill:#e5e5e5">
      <tspan x="145" y="119">L2</tspan>
   </text>
   <text y="119" x="235" style="font-size:13px;font-family:Arial,sans-serif;fill:#e5e5e5">
      <tspan x="235" y="119">R3</tspan>
   </text>
   <text y="145" x="298" style="font-size:13px;font-family:Arial,sans-serif;fill:#e5e5e5">
      <tspan x="298" y="145">R4</tspan>
   </text>
</svg>
